<mxfile host="Electron" agent="Mozilla/5.0 (Windows NT 10.0; Win64; x64) AppleWebKit/537.36 (KHTML, like Gecko) draw.io/26.0.16 Chrome/132.0.6834.196 Electron/34.2.0 Safari/537.36" version="26.0.16">
  <diagram name="PÃ¡gina-1" id="lAnH4m17Q3IS6XNy2Bbz">
    <mxGraphModel dx="1888" dy="758" grid="1" gridSize="10" guides="1" tooltips="1" connect="1" arrows="1" fold="1" page="1" pageScale="1" pageWidth="827" pageHeight="1169" math="0" shadow="0">
      <root>
        <mxCell id="0" />
        <mxCell id="1" parent="0" />
        <mxCell id="FYi_UlorLz6zdRcBZ1H1-6" value="" style="ellipse;shape=cloud;whiteSpace=wrap;html=1;" vertex="1" parent="1">
          <mxGeometry x="340" y="280" width="415" height="310" as="geometry" />
        </mxCell>
        <mxCell id="FYi_UlorLz6zdRcBZ1H1-5" style="edgeStyle=orthogonalEdgeStyle;rounded=0;orthogonalLoop=1;jettySize=auto;html=1;" edge="1" parent="1" source="FYi_UlorLz6zdRcBZ1H1-1" target="FYi_UlorLz6zdRcBZ1H1-3">
          <mxGeometry relative="1" as="geometry" />
        </mxCell>
        <mxCell id="FYi_UlorLz6zdRcBZ1H1-1" value="Actor" style="shape=umlActor;verticalLabelPosition=bottom;verticalAlign=top;html=1;outlineConnect=0;" vertex="1" parent="1">
          <mxGeometry x="50" y="385" width="30" height="60" as="geometry" />
        </mxCell>
        <mxCell id="FYi_UlorLz6zdRcBZ1H1-14" style="edgeStyle=orthogonalEdgeStyle;rounded=0;orthogonalLoop=1;jettySize=auto;html=1;" edge="1" parent="1" source="FYi_UlorLz6zdRcBZ1H1-3" target="FYi_UlorLz6zdRcBZ1H1-8">
          <mxGeometry relative="1" as="geometry" />
        </mxCell>
        <mxCell id="FYi_UlorLz6zdRcBZ1H1-3" value="" style="shape=image;verticalLabelPosition=bottom;labelBackgroundColor=default;verticalAlign=top;aspect=fixed;imageAspect=0;image=https://static.vecteezy.com/system/resources/previews/023/986/679/original/telegram-logo-telegram-logo-transparent-telegram-icon-transparent-free-free-png.png;" vertex="1" parent="1">
          <mxGeometry x="190" y="370" width="90" height="90" as="geometry" />
        </mxCell>
        <mxCell id="FYi_UlorLz6zdRcBZ1H1-17" value="" style="edgeStyle=orthogonalEdgeStyle;rounded=0;orthogonalLoop=1;jettySize=auto;html=1;" edge="1" parent="1" source="FYi_UlorLz6zdRcBZ1H1-8" target="FYi_UlorLz6zdRcBZ1H1-15">
          <mxGeometry relative="1" as="geometry" />
        </mxCell>
        <mxCell id="FYi_UlorLz6zdRcBZ1H1-22" style="edgeStyle=orthogonalEdgeStyle;rounded=0;orthogonalLoop=1;jettySize=auto;html=1;" edge="1" parent="1" source="FYi_UlorLz6zdRcBZ1H1-8" target="FYi_UlorLz6zdRcBZ1H1-20">
          <mxGeometry relative="1" as="geometry" />
        </mxCell>
        <mxCell id="FYi_UlorLz6zdRcBZ1H1-8" value="CasiAC/deepseek-r1-8b-ciberseguridad" style="rounded=1;whiteSpace=wrap;html=1;" vertex="1" parent="1">
          <mxGeometry x="420" y="385" width="180" height="60" as="geometry" />
        </mxCell>
        <mxCell id="FYi_UlorLz6zdRcBZ1H1-9" value="" style="image;sketch=0;aspect=fixed;html=1;points=[];align=center;fontSize=12;image=img/lib/mscae/Docker.svg;" vertex="1" parent="1">
          <mxGeometry x="570" y="360" width="50" height="41" as="geometry" />
        </mxCell>
        <mxCell id="FYi_UlorLz6zdRcBZ1H1-10" value="" style="image;sketch=0;aspect=fixed;html=1;points=[];align=center;fontSize=12;image=img/lib/mscae/Kubernetes.svg;" vertex="1" parent="1">
          <mxGeometry x="600" y="300" width="50" height="48" as="geometry" />
        </mxCell>
        <mxCell id="FYi_UlorLz6zdRcBZ1H1-12" value="" style="shape=image;verticalLabelPosition=bottom;labelBackgroundColor=default;verticalAlign=top;aspect=fixed;imageAspect=0;image=https://logos-world.net/wp-content/uploads/2021/03/Azure-Logo-2020-present.png;" vertex="1" parent="1">
          <mxGeometry x="635" y="300" width="85.32" height="48" as="geometry" />
        </mxCell>
        <mxCell id="FYi_UlorLz6zdRcBZ1H1-13" value="" style="shape=image;verticalLabelPosition=bottom;labelBackgroundColor=default;verticalAlign=top;aspect=fixed;imageAspect=0;image=https://www.pngplay.com/wp-content/uploads/3/Amazon-Web-Services-AWS-Logo-Transparent-PNG.png;" vertex="1" parent="1">
          <mxGeometry x="710" y="306" width="60" height="36" as="geometry" />
        </mxCell>
        <mxCell id="FYi_UlorLz6zdRcBZ1H1-15" value="RAG ChromaDB" style="rounded=1;whiteSpace=wrap;html=1;" vertex="1" parent="1">
          <mxGeometry x="510" y="485" width="105" height="60" as="geometry" />
        </mxCell>
        <mxCell id="FYi_UlorLz6zdRcBZ1H1-16" value="" style="image;sketch=0;aspect=fixed;html=1;points=[];align=center;fontSize=12;image=img/lib/mscae/Docker.svg;" vertex="1" parent="1">
          <mxGeometry x="585" y="460" width="50" height="41" as="geometry" />
        </mxCell>
        <mxCell id="FYi_UlorLz6zdRcBZ1H1-20" value="" style="shape=image;verticalLabelPosition=bottom;labelBackgroundColor=default;verticalAlign=top;aspect=fixed;imageAspect=0;image=https://i.pinimg.com/736x/8a/f0/b0/8af0b0b25aa9a2c3f125285d1316e689.jpg;" vertex="1" parent="1">
          <mxGeometry x="423.65999999999997" y="230" width="172.68" height="30" as="geometry" />
        </mxCell>
        <mxCell id="FYi_UlorLz6zdRcBZ1H1-25" value="API" style="text;strokeColor=none;align=center;fillColor=none;html=1;verticalAlign=middle;whiteSpace=wrap;rounded=0;" vertex="1" parent="1">
          <mxGeometry x="500" y="270" width="60" height="30" as="geometry" />
        </mxCell>
        <mxCell id="FYi_UlorLz6zdRcBZ1H1-26" value="Telegram Bot" style="text;strokeColor=none;align=center;fillColor=none;html=1;verticalAlign=middle;whiteSpace=wrap;rounded=0;" vertex="1" parent="1">
          <mxGeometry x="280" y="385" width="80" height="30" as="geometry" />
        </mxCell>
      </root>
    </mxGraphModel>
  </diagram>
</mxfile>
